<?xml version="1.0"?>
<svg xmlns="http://www.w3.org/2000/svg" xmlns:xlink="http://www.w3.org/1999/xlink" xmlns:svgjs="http://svgjs.com/svgjs" version="1.1" width="512" height="512" x="0" y="0" viewBox="0 0 74 74" style="enable-background:new 0 0 512 512" xml:space="preserve" class=""><g><path xmlns="http://www.w3.org/2000/svg" d="m70 18.38h-66a2 2 0 0 0 -2 2v5.27a2 2 0 0 0 2 2h66a2 2 0 0 0 2-2v-5.27a2 2 0 0 0 -2-2z" fill="#67717b" data-original="#000000" style="" class=""/><path xmlns="http://www.w3.org/2000/svg" d="m5.25 65.38a1 1 0 0 0 1 1h61.5a1 1 0 0 0 1-1v-35.73h-63.5zm23.68-15.69 4.82-11a1 1 0 0 1 .92-.59h7.68a1 1 0 0 1 .91 1.42l-3 6.59h3.94a1 1 0 0 1 .94.64 1 1 0 0 1 -.28 1.11l-13.36 11.8a1 1 0 0 1 -1.21.09 1 1 0 0 1 -.4-1.16l2.55-7.49h-2.59a1 1 0 0 1 -.84-.46 1 1 0 0 1 -.08-.95z" fill="#67717b" data-original="#000000" style="" class=""/><path xmlns="http://www.w3.org/2000/svg" d="m63.33 13.58a1 1 0 0 0 -1-1h-2.08v-3.5a1 1 0 0 0 -1-1h-7.5a1 1 0 0 0 -1 1v3.5h-2.08a1 1 0 0 0 -1 1v2.8h15.66z" fill="#67717b" data-original="#000000" style="" class=""/><path xmlns="http://www.w3.org/2000/svg" d="m26.33 13.58a1 1 0 0 0 -1-1h-2.08v-3.5a1 1 0 0 0 -1-1h-7.5a1 1 0 0 0 -1 1v3.5h-2.08a1 1 0 0 0 -1 1v2.8h15.66z" fill="#67717b" data-original="#000000" style="" class=""/></g></svg>
